<svg width="116" height="25" viewBox="0 0 116 25" fill="none" xmlns="http://www.w3.org/2000/svg">
<path d="M53.2812 7.16406V14.2188C53.2812 15.2656 53.0469 16.1719 52.5781 16.9375C52.1094 17.6875 51.4688 18.2656 50.6562 18.6719C49.8594 19.0781 48.9531 19.2812 47.9375 19.2812C46.9062 19.2812 45.9844 19.0781 45.1719 18.6719C44.375 18.2656 43.7422 17.6875 43.2734 16.9375C42.8203 16.1719 42.5938 15.2656 42.5938 14.2188V7.16406H45.5938L45.6172 13.6797C45.6172 14.6016 45.8281 15.2891 46.25 15.7422C46.6719 16.1953 47.2344 16.4219 47.9375 16.4219C48.625 16.4219 49.1797 16.1953 49.6016 15.7422C50.0391 15.2891 50.2578 14.6016 50.2578 13.6797V7.16406H53.2812ZM58.4563 7.16406V8.66406C58.8156 8.21094 59.2453 7.79688 59.7453 7.42188C60.2609 7.04688 60.9172 6.85938 61.7141 6.85938C62.5422 6.85938 63.2922 7.05469 63.9641 7.44531C64.6359 7.82031 65.1594 8.39062 65.5344 9.15625C66.0031 8.51562 66.55 7.97656 67.175 7.53906C67.8 7.08594 68.5266 6.85938 69.3547 6.85938C70.1516 6.85938 70.8781 7.04688 71.5344 7.42188C72.1906 7.78125 72.7141 8.32031 73.1047 9.03906C73.5109 9.75781 73.7141 10.6562 73.7141 11.7344V19H70.7375L70.7141 12.1328C70.7141 11.3359 70.5031 10.7422 70.0813 10.3516C69.675 9.96094 69.1359 9.76562 68.4641 9.76562C67.9484 9.76562 67.5031 9.92969 67.1281 10.2578C66.7531 10.5703 66.4016 10.9453 66.0734 11.3828V19H63.0969L63.0734 12.1328C63.0734 11.3359 62.8625 10.7422 62.4406 10.3516C62.0344 9.96094 61.5031 9.76562 60.8469 9.76562C60.3469 9.76562 59.9016 9.92188 59.5109 10.2344C59.1203 10.5312 58.7688 10.8828 58.4563 11.2891V19H55.4797V7.16406H58.4563ZM78.3969 1C78.9594 1 79.4437 1.20312 79.85 1.60938C80.2562 2 80.4594 2.46875 80.4594 3.01562C80.4594 3.54687 80.2562 4.01562 79.85 4.42188C79.4437 4.82813 78.9594 5.03125 78.3969 5.03125C77.8344 5.03125 77.35 4.82813 76.9437 4.42188C76.5531 4.01562 76.3578 3.54687 76.3578 3.01562C76.3578 2.46875 76.5531 2 76.9437 1.60938C77.35 1.20312 77.8344 1 78.3969 1ZM80.1312 7.16406V19H77.1547V9.69531H75.2562V7.16406H80.1312ZM92.5016 7.16406V7.89062L86.3844 16.4453H92.7359V19H82.0953V18.25L87.9547 9.69531H82.4469V7.16406H92.5016ZM99.2234 6.85938C99.8641 6.85938 100.513 7.00781 101.169 7.30469C101.825 7.60156 102.372 8 102.809 8.5V7.16406H105.786V18.6953C105.786 20.0391 105.489 21.1719 104.895 22.0938C104.302 23.0312 103.513 23.7422 102.528 24.2266C101.544 24.7266 100.466 24.9766 99.2938 24.9766C98.2469 24.9766 97.3875 24.8203 96.7156 24.5078C96.0438 24.1953 95.4188 23.8359 94.8406 23.4297V20.6172C95.2 20.8359 95.575 21.0703 95.9656 21.3203C96.3719 21.5703 96.825 21.7812 97.325 21.9531C97.8406 22.125 98.4344 22.2109 99.1063 22.2109C99.8094 22.2109 100.442 22.0781 101.005 21.8125C101.567 21.5469 102.005 21.1719 102.317 20.6875C102.645 20.2188 102.809 19.6797 102.809 19.0703V17.0078C102.466 17.6484 101.966 18.2031 101.309 18.6719C100.653 19.125 99.8875 19.3516 99.0125 19.3516C98.0594 19.3516 97.1766 19.1094 96.3641 18.625C95.5672 18.1406 94.9266 17.4375 94.4422 16.5156C93.9578 15.5938 93.7156 14.4766 93.7156 13.1641C93.7156 11.8516 93.9578 10.7266 94.4422 9.78906C94.9422 8.85156 95.6063 8.13281 96.4344 7.63281C97.2781 7.11719 98.2078 6.85938 99.2234 6.85938ZM99.8328 9.78906C99.2078 9.78906 98.6688 9.95312 98.2156 10.2812C97.7781 10.5938 97.4344 11.0078 97.1844 11.5234C96.9344 12.0234 96.8094 12.5703 96.8094 13.1641C96.8094 14.0547 97.075 14.8125 97.6063 15.4375C98.1531 16.0469 98.8719 16.3516 99.7625 16.3516C100.294 16.3516 100.786 16.2188 101.239 15.9531C101.708 15.6719 102.083 15.2812 102.364 14.7812C102.661 14.2656 102.809 13.6484 102.809 12.9297V11.2422C102.388 10.7891 101.927 10.4375 101.427 10.1875C100.942 9.92188 100.411 9.78906 99.8328 9.78906ZM110.727 1C111.289 1 111.773 1.20312 112.18 1.60938C112.586 2 112.789 2.46875 112.789 3.01562C112.789 3.54687 112.586 4.01562 112.18 4.42188C111.773 4.82813 111.289 5.03125 110.727 5.03125C110.164 5.03125 109.68 4.82813 109.273 4.42188C108.883 4.01562 108.688 3.54687 108.688 3.01562C108.688 2.46875 108.883 2 109.273 1.60938C109.68 1.20312 110.164 1 110.727 1ZM112.461 7.16406V19H109.484V9.69531H107.586V7.16406H112.461Z" fill="#B43A3A"/>
<path d="M22.7208 18.3607C22.6824 18.355 22.6441 18.3491 22.6058 18.3432C22.6146 18.4111 22.6227 18.4791 22.6303 18.5472C22.6609 18.4853 22.6912 18.4232 22.7208 18.3607ZM22.7208 18.3607C22.8387 18.1351 22.9494 17.9058 23.0528 17.6731C23.2086 17.3046 23.3458 16.9286 23.4641 16.5464C23.5823 16.1642 23.6813 15.7763 23.7608 15.3842C23.8403 14.9921 23.9001 14.5962 23.9401 14.1982C23.98 13.8001 24 13.4002 24 13.0001C24.0002 12.7169 23.9904 12.4338 23.9706 12.1513C23.9423 11.7522 23.8941 11.3548 23.8261 10.9605C23.7581 10.5663 23.6704 10.1756 23.5633 9.79014C23.4563 9.40464 23.3301 9.02474 23.1851 8.65186C23.0401 8.27897 22.8766 7.91356 22.6952 7.55699C22.5137 7.20044 22.3146 6.85319 22.0984 6.51654C21.8823 6.17987 21.6494 5.85422 21.4007 5.54082C21.152 5.22742 20.8878 4.92666 20.609 4.63965C20.5525 4.5859 20.4954 4.5327 20.4377 4.48006L16.1429 8.77514C16.1533 8.79332 16.1637 8.81153 16.1741 8.82976C16.1837 8.85151 16.1933 8.87329 16.2028 8.8951C16.2793 8.93104 16.3554 8.96779 16.4311 9.00534C16.7822 9.19718 17.1234 9.40644 17.4536 9.63236C17.7838 9.85824 18.1025 10.1005 18.4085 10.3582C18.7145 10.616 19.0074 10.8888 19.2861 11.1759C19.5649 11.4629 19.829 11.7636 20.0777 12.0771C20.3264 12.3904 20.5593 12.7161 20.7755 13.0527C20.9916 13.3894 21.1908 13.7366 21.3722 14.0932C21.5537 14.4497 21.7172 14.8152 21.8622 15.188C22.0072 15.5609 22.1334 15.9408 22.2404 16.3263C22.3474 16.7118 22.4351 17.1024 22.5031 17.4967C22.5474 17.7776 22.5816 18.0599 22.6058 18.3432C22.6441 18.3491 22.6824 18.355 22.7208 18.3607ZM22.6058 18.3432C22.3112 18.3056 22.0174 18.2612 21.7248 18.21C21.1809 18.096 20.6423 17.9585 20.1103 17.7977C20.1183 17.8027 20.1262 17.8076 20.1342 17.8126C20.2002 17.8578 20.2639 17.9063 20.3251 17.9578C20.3863 18.0093 20.4449 18.0639 20.5007 18.1213C20.5564 18.1787 20.6092 18.2389 20.6589 18.3016C20.7087 18.3643 20.7553 18.4294 20.7985 18.4967C20.8417 18.5641 20.8816 18.6335 20.9179 18.7048C20.9542 18.7761 20.9869 18.8492 21.0159 18.9237C21.0449 18.9983 21.0701 19.0743 21.0915 19.1515C21.1131 19.2285 21.1309 19.3066 21.1447 19.3855C21.1581 19.4643 21.1675 19.5438 21.1729 19.6236C21.1771 19.6801 21.1793 19.7368 21.1796 19.7934C21.1797 19.8734 21.1758 19.9534 21.168 20.033C21.1601 20.1127 21.1483 20.1918 21.1325 20.2703C21.1166 20.3487 21.0968 20.4263 21.0732 20.5027C21.0495 20.5791 21.0221 20.6543 20.9909 20.728C20.9598 20.8018 20.9249 20.8739 20.8866 20.9441C20.8482 21.0143 20.8064 21.0826 20.7612 21.1486C20.7213 21.2061 20.6789 21.2619 20.6342 21.3157C20.8223 21.1268 21.0041 20.9316 21.1792 20.7305C21.437 20.4246 21.6793 20.1059 21.9052 19.7757C22.131 19.4455 22.3403 19.1041 22.532 18.753C22.5658 18.6847 22.5978 18.6161 22.6303 18.5472C22.6227 18.4791 22.6146 18.4111 22.6058 18.3432ZM22.6058 18.3432C22.5816 18.0599 22.5474 17.7776 22.5031 17.4967C22.4351 17.1024 22.3474 16.7118 22.2404 16.3263C22.1334 15.9408 22.0072 15.5609 21.8622 15.188C21.7172 14.8152 21.5537 14.4497 21.3722 14.0932C21.1908 13.7366 20.9916 13.3894 20.7755 13.0527C20.5593 12.7161 20.3264 12.3904 20.0777 12.0771C19.829 11.7636 19.5649 11.4629 19.2861 11.1759C19.0074 10.8888 18.7145 10.616 18.4085 10.3582C18.1025 10.1005 17.7838 9.85824 17.4536 9.63236C17.1234 9.40644 16.7822 9.19718 16.4311 9.00534C16.3554 8.96779 16.2793 8.93104 16.2028 8.8951C16.3725 9.23086 16.5261 9.57433 16.6635 9.92455C16.8085 10.2975 16.9347 10.6774 17.0417 11.0629C17.1487 11.4484 17.2364 11.839 17.3044 12.2332C17.3724 12.6275 17.4207 13.0249 17.449 13.424C17.4692 13.7065 17.4794 13.9896 17.4795 14.2728C17.4795 14.6729 17.4595 15.0728 17.4196 15.4709C17.3797 15.8689 17.3198 16.2648 17.2404 16.6568C17.2381 16.6636 17.2359 16.6703 17.2336 16.6771C17.5063 16.817 17.7824 16.9504 18.0615 17.0771C18.3556 17.1927 18.6525 17.3011 18.952 17.4021C18.974 17.4028 18.996 17.4039 19.018 17.4052C19.0976 17.4132 19.1768 17.4252 19.2553 17.4411C19.3337 17.457 19.4112 17.4768 19.4877 17.5005C19.5641 17.5241 19.6393 17.5516 19.713 17.5827C19.7867 17.6139 19.8587 17.6487 19.929 17.6871C19.9906 17.7212 20.0519 17.7583 20.1103 17.7977C20.6423 17.9585 21.1809 18.096 21.7248 18.21C22.0174 18.2612 22.3112 18.3056 22.6058 18.3432ZM20.1103 17.7977C20.0285 17.7774 19.9469 17.7566 19.8654 17.7352C19.5585 17.6319 19.2533 17.5208 18.952 17.4021C18.8943 17.3971 18.8374 17.3943 18.7795 17.3935C18.7229 17.3933 18.6662 17.3951 18.6097 17.399C18.5299 17.4046 18.4504 17.4143 18.3716 17.4279C18.2927 17.4415 18.2146 17.4591 18.1375 17.4805C18.0604 17.5019 17.9844 17.5271 17.9099 17.5561C17.8353 17.5851 17.7622 17.6178 17.6909 17.6541C17.6196 17.6904 17.5501 17.7303 17.4827 17.7735C17.4154 17.8167 17.3503 17.8633 17.2877 17.913C17.225 17.9628 17.1648 18.0156 17.1074 18.0714C17.1008 18.0785 17.0943 18.0857 17.0878 18.0929L20.4776 21.4828C20.53 21.4276 20.5828 21.372 20.6342 21.3157C20.6789 21.2619 20.7213 21.2061 20.7612 21.1486C20.8064 21.0826 20.8482 21.0143 20.8866 20.9441C20.9249 20.8739 20.9598 20.8018 20.9909 20.728C21.0221 20.6543 21.0495 20.5791 21.0732 20.5027C21.0968 20.4263 21.1166 20.3487 21.1325 20.2703C21.1483 20.1918 21.1601 20.1127 21.168 20.033C21.1758 19.9534 21.1797 19.8734 21.1796 19.7934C21.1793 19.7368 21.1771 19.6801 21.1729 19.6236C21.1675 19.5438 21.1581 19.4643 21.1447 19.3855C21.1309 19.3066 21.1131 19.2285 21.0915 19.1515C21.0701 19.0743 21.0449 18.9983 21.0159 18.9237C20.9869 18.8492 20.9542 18.7761 20.9179 18.7048C20.8816 18.6335 20.8417 18.5641 20.7985 18.4967C20.7553 18.4294 20.7087 18.3643 20.6589 18.3016C20.6092 18.2389 20.5564 18.1787 20.5007 18.1213C20.4449 18.0639 20.3863 18.0093 20.3251 17.9578C20.2639 17.9063 20.2002 17.8578 20.1342 17.8126C20.1262 17.8076 20.1183 17.8027 20.1103 17.7977ZM20.1103 17.7977C20.0519 17.7583 19.9906 17.7212 19.929 17.6871C19.8587 17.6487 19.7867 17.6139 19.713 17.5827C19.6393 17.5516 19.5641 17.5241 19.4877 17.5005C19.4112 17.4768 19.3337 17.457 19.2553 17.4411C19.1768 17.4252 19.0976 17.4132 19.018 17.4052C18.996 17.4039 18.974 17.4028 18.952 17.4021C19.2533 17.5208 19.5585 17.6319 19.8654 17.7352C19.9469 17.7566 20.0285 17.7774 20.1103 17.7977ZM18.952 17.4021C18.6525 17.3011 18.3556 17.1927 18.0615 17.0771C17.7824 16.9504 17.5063 16.817 17.2336 16.6771C17.1552 17.0623 17.0589 17.4434 16.9431 17.8191C16.9316 17.8507 16.92 17.8824 16.9082 17.9139L17.0878 18.0929C17.0943 18.0857 17.1008 18.0785 17.1074 18.0714C17.1648 18.0156 17.225 17.9628 17.2877 17.913C17.3503 17.8633 17.4154 17.8167 17.4827 17.7735C17.5501 17.7303 17.6196 17.6904 17.6909 17.6541C17.7622 17.6178 17.8353 17.5851 17.9099 17.5561C17.9844 17.5271 18.0604 17.5019 18.1375 17.4805C18.2146 17.4591 18.2927 17.4415 18.3716 17.4279C18.4504 17.4143 18.5299 17.4046 18.6097 17.399C18.6662 17.3951 18.7229 17.3933 18.7795 17.3935C18.8374 17.3943 18.8943 17.3971 18.952 17.4021ZM17.0878 18.0929C17.0377 18.1422 16.9895 18.1938 16.9439 18.2473C16.8923 18.3085 16.8439 18.3723 16.7987 18.4383C16.7535 18.5044 16.7117 18.5726 16.6733 18.6428C16.6349 18.7131 16.6001 18.7852 16.569 18.8589C16.5378 18.9326 16.5104 19.0078 16.4867 19.0842C16.4631 19.1607 16.4433 19.2382 16.4274 19.3167C16.4114 19.3951 16.3994 19.4742 16.3913 19.5539C16.3834 19.6335 16.3796 19.7134 16.3797 19.7934C16.3799 19.8501 16.3822 19.9067 16.3864 19.9632C16.392 20.043 16.4016 20.1225 16.4152 20.2013C16.429 20.2802 16.4467 20.3584 16.4684 20.4355C16.4898 20.5126 16.5151 20.5885 16.5441 20.6631C16.573 20.7377 16.6057 20.8108 16.642 20.8821C16.6783 20.9534 16.7181 21.0229 16.7614 21.0902C16.8046 21.1575 16.8512 21.2227 16.9009 21.2853C16.9507 21.348 17.0035 21.4082 17.0593 21.4656C17.115 21.523 17.1736 21.5775 17.2347 21.6291C17.2959 21.6806 17.3597 21.7291 17.4257 21.7743C17.4918 21.8194 17.5601 21.8613 17.6303 21.8996C17.7005 21.938 17.7726 21.9729 17.8463 22.004C17.92 22.0352 17.9952 22.0626 18.0716 22.0863C18.148 22.1099 18.2256 22.1297 18.304 22.1456C18.3825 22.1615 18.4617 22.1735 18.5413 22.1815C18.6209 22.1895 18.7008 22.1935 18.7808 22.1935C18.8374 22.1934 18.8941 22.1914 18.9506 22.1874C19.0304 22.1817 19.1099 22.1721 19.1888 22.1585C19.2676 22.1449 19.3457 22.1274 19.4228 22.106C19.4999 22.0846 19.5759 22.0593 19.6505 22.0303C19.7251 22.0013 19.7981 21.9686 19.8695 21.9324C19.9408 21.896 20.0103 21.8562 20.0776 21.813C20.1449 21.7697 20.21 21.7232 20.2727 21.6734C20.3272 21.6296 20.3798 21.5835 20.4302 21.5351C20.4464 21.5178 20.4615 21.5002 20.4776 21.4828L17.0878 18.0929ZM17.0878 18.0929L16.9082 17.9139C16.7985 18.2634 16.673 18.6078 16.5318 18.9458C16.376 19.3143 16.2019 19.6748 16.01 20.0259C15.8182 20.377 15.609 20.7183 15.3831 21.0485C15.1572 21.3787 14.915 21.6974 14.6572 22.0034C14.3995 22.3094 14.1266 22.6024 13.8396 22.8811C13.5526 23.1598 13.2519 23.424 12.9385 23.6727C12.6251 23.9214 12.2995 24.1543 11.9629 24.3704C11.6369 24.579 11.3011 24.7716 10.9566 24.9477C11.3037 24.9803 11.652 24.9977 12.0006 25C12.2838 25 12.5669 24.99 12.8494 24.9699C13.2485 24.9416 13.6459 24.8934 14.0401 24.8254C14.4343 24.7574 14.8249 24.6697 15.2104 24.5627C15.5959 24.4557 15.9758 24.3294 16.3487 24.1845C16.7216 24.0395 17.087 23.8759 17.4435 23.6944C17.8001 23.513 18.1473 23.3138 18.4839 23.0976C18.8206 22.8814 19.1462 22.6486 19.4596 22.3999C19.773 22.1512 20.0737 21.887 20.3606 21.6082C20.3835 21.584 20.4062 21.5596 20.4288 21.5351C20.3784 21.5835 20.3258 21.6297 20.2713 21.6735C20.2086 21.7232 20.1435 21.7698 20.0762 21.813C20.0089 21.8563 19.9394 21.8961 19.8681 21.9324C19.7968 21.9687 19.7237 22.0014 19.6491 22.0304C19.5745 22.0594 19.4985 22.0847 19.4214 22.1061C19.3443 22.1275 19.2662 22.145 19.1874 22.1586C19.1085 22.1722 19.0304 22.1817 18.9506 22.1874C18.8941 22.1912 18.8362 22.1931 18.7795 22.193C18.6995 22.193 18.6196 22.189 18.54 22.181C18.4604 22.173 18.3812 22.161 18.3028 22.1451C18.2244 22.1292 18.1468 22.1093 18.0703 22.0857C17.9939 22.0621 17.9187 22.0346 17.845 22.0035C17.7712 21.9723 17.6991 21.9375 17.6289 21.8991C17.5587 21.8607 17.4905 21.8189 17.4244 21.7737C17.3584 21.7285 17.2946 21.68 17.2334 21.6285C17.1722 21.577 17.1137 21.5224 17.0579 21.465C17.0022 21.4076 16.9493 21.3474 16.8996 21.2848C16.8498 21.2221 16.8033 21.1569 16.76 21.0896C16.7168 21.0223 16.677 20.9528 16.6407 20.8815C16.6044 20.8102 16.5717 20.7371 16.5427 20.6625C16.5137 20.588 16.4885 20.512 16.4671 20.4349C16.4457 20.3578 16.4288 20.2802 16.4152 20.2013C16.4016 20.1225 16.392 20.043 16.3864 19.9632C16.3822 19.9067 16.3799 19.8501 16.3797 19.7934C16.3796 19.7134 16.3834 19.6335 16.3913 19.5539C16.3994 19.4742 16.4114 19.3951 16.4274 19.3167C16.4433 19.2382 16.4631 19.1607 16.4867 19.0842C16.5104 19.0078 16.5378 18.9326 16.569 18.8589C16.6001 18.7852 16.6349 18.7131 16.6733 18.6428C16.7117 18.5726 16.7535 18.5044 16.7987 18.4383C16.8439 18.3723 16.8923 18.3085 16.9439 18.2473C16.9895 18.1938 17.0377 18.1422 17.0878 18.0929ZM20.4288 21.5351C20.4364 21.5285 20.4439 21.5218 20.4514 21.5151C20.5088 21.4594 20.5634 21.4008 20.615 21.3396C20.6209 21.3317 20.6269 21.3237 20.6327 21.3158C20.5813 21.372 20.53 21.4275 20.4776 21.4828C20.4613 21.5002 20.4452 21.5178 20.4288 21.5351ZM0.0481311 13.9889C0.0806045 13.92 0.113733 13.8514 0.147512 13.7832C0.339331 13.4321 0.548589 13.0908 0.774501 12.7606C1.00039 12.4304 1.24266 12.1117 1.50038 11.8057C1.7581 11.4996 2.03096 11.2067 2.31794 10.9279C2.60494 10.6492 2.9057 10.385 3.2191 10.1363C3.53248 9.88762 3.8581 9.65475 4.19475 9.43859C4.53137 9.22244 4.87858 9.02325 5.2351 8.84178C5.59165 8.66031 5.95706 8.49678 6.32994 8.35181C6.58146 8.25877 6.83601 8.1742 7.09319 8.09822L6.90195 7.907C6.89126 7.91855 6.88046 7.92998 6.86954 7.94131C6.81216 7.99708 6.75203 8.04993 6.68937 8.09969C6.62668 8.14943 6.56155 8.196 6.49421 8.23924C6.42689 8.28247 6.35745 8.3223 6.28616 8.35859C6.21485 8.39489 6.14178 8.42759 6.06721 8.45659C5.99262 8.48557 5.91663 8.51081 5.83952 8.5322C5.76243 8.55362 5.68432 8.57118 5.60547 8.5848C5.52662 8.59841 5.44714 8.60806 5.36732 8.61373C5.3108 8.61777 5.25415 8.61981 5.19749 8.61984C5.11751 8.61984 5.03758 8.61584 4.95799 8.60785C4.87837 8.59985 4.79919 8.58787 4.72076 8.57195C4.64233 8.55605 4.56475 8.53623 4.4883 8.51257C4.41188 8.48893 4.33668 8.46148 4.263 8.43033C4.1893 8.39917 4.11721 8.36435 4.04699 8.32599C3.97677 8.28763 3.90851 8.24579 3.84248 8.20061C3.77643 8.15542 3.71269 8.10695 3.65148 8.05539C3.59031 8.00384 3.53175 7.94927 3.47602 7.89187C3.42027 7.83446 3.36742 7.7743 3.31768 7.71161C3.26792 7.64895 3.22132 7.58385 3.17806 7.51654C3.13484 7.44919 3.09502 7.37972 3.05874 7.30838C3.02243 7.23708 2.98971 7.164 2.96071 7.08943C2.93173 7.01485 2.9065 6.93887 2.88511 6.86177C2.86349 6.78468 2.84573 6.70655 2.83191 6.62769C2.81857 6.54882 2.80918 6.46933 2.80377 6.38953C2.79953 6.33304 2.79729 6.27641 2.79705 6.21976C2.79692 6.13974 2.8008 6.05977 2.80867 5.98014C2.81673 5.90053 2.82878 5.82137 2.84475 5.74296C2.86064 5.66452 2.88043 5.58693 2.90407 5.51048C2.92772 5.43405 2.95517 5.35885 2.98633 5.28516C3.01751 5.21146 3.05235 5.13936 3.09073 5.06914C3.12908 4.99891 3.17092 4.93064 3.2161 4.86459C3.24058 4.83059 3.26595 4.79722 3.29218 4.76454C3.13056 4.92831 2.97369 5.0967 2.82175 5.26949C2.56403 5.57548 2.32177 5.89416 2.09587 6.22435C1.87 6.55456 1.66079 6.89586 1.46901 7.24697C1.27718 7.59809 1.10303 7.95859 0.94721 8.32711C0.791439 8.69561 0.654193 9.07166 0.535985 9.45387C0.417741 9.83608 0.318684 10.224 0.239187 10.6161C0.159702 11.0082 0.0998761 11.404 0.0599336 11.8021C0.0199995 12.2002 -3.30885e-06 12.6 4.10543e-10 13.0001C0.000173126 13.2833 0.0103725 13.5664 0.0305789 13.8489C0.0358083 13.8957 0.0423523 13.9423 0.0481311 13.9889ZM7.09319 8.09822C7.21751 8.05461 7.34253 8.01304 7.46821 7.97354C7.73947 7.90261 8.01314 7.8412 8.2887 7.78943C8.05429 7.31856 7.83932 6.83826 7.64435 6.34973C7.62847 6.3027 7.61277 6.25561 7.59725 6.20845C7.59726 6.21208 7.59726 6.21571 7.59725 6.21934C7.59738 6.29935 7.5935 6.37931 7.58563 6.45893C7.57777 6.53853 7.56593 6.6177 7.55016 6.69612C7.53428 6.77456 7.51448 6.85215 7.49084 6.92861C7.46721 7.00505 7.43978 7.08026 7.40864 7.15395C7.37751 7.22764 7.34271 7.29973 7.30437 7.36995C7.26598 7.44019 7.22409 7.50847 7.17887 7.57452C7.13369 7.64055 7.08524 7.70428 7.03369 7.76546C6.99175 7.81429 6.94768 7.86171 6.90195 7.907L7.09319 8.09822ZM8.2887 7.78943C8.40493 7.76149 8.52157 7.73529 8.63859 7.71083C9.03284 7.64284 9.43025 7.59462 9.82933 7.56633C10.1118 7.54629 10.3949 7.53625 10.6781 7.53624C11.0781 7.53624 11.478 7.55624 11.876 7.59618C12.2741 7.63613 12.6699 7.69596 13.062 7.77545C13.4541 7.85494 13.842 7.95398 14.2242 8.07222C14.6064 8.19044 14.9824 8.3277 15.3509 8.48348C15.5982 8.59279 15.8417 8.71044 16.0811 8.8362L16.1429 8.77514C15.97 8.43778 15.7809 8.10869 15.5769 7.7892C15.3607 7.45255 15.1279 7.12693 14.8792 6.81355C14.6305 6.50014 14.3664 6.19937 14.0877 5.91236C13.8089 5.62536 13.516 5.35248 13.21 5.09475C12.904 4.83701 12.5853 4.59473 12.2551 4.36883C11.9249 4.14292 11.5836 3.93367 11.2325 3.74186C10.8814 3.55004 10.521 3.37591 10.1525 3.22011C9.78399 3.06431 9.40793 2.92704 9.02571 2.80881C8.64355 2.69058 8.25571 2.59153 7.86366 2.51204C7.47155 2.43255 7.07571 2.37272 6.67763 2.33278C6.64483 2.33101 6.61203 2.32938 6.57922 2.32789C6.59153 2.43725 6.60479 2.5465 6.61898 2.65564C6.72778 3.28649 6.86807 3.91151 7.03931 4.52835C7.06873 4.6191 7.09882 4.70963 7.12958 4.79994C7.16018 4.84 7.18951 4.88102 7.21753 4.92294C7.26074 4.99026 7.30056 5.05971 7.33684 5.13101C7.37313 5.20232 7.40583 5.27541 7.43482 5.34999C7.46384 5.42457 7.48911 5.50055 7.51053 5.57764C7.53175 5.65476 7.5491 5.7329 7.56252 5.81175C7.57606 5.8906 7.58566 5.97009 7.59126 6.0499C7.59525 6.10267 7.59676 6.15553 7.59725 6.20845C7.61277 6.25561 7.62847 6.3027 7.64435 6.34973C7.83932 6.83826 8.05429 7.31856 8.2887 7.78943ZM8.2887 7.78943C8.3343 7.89388 8.38082 7.99791 8.42827 8.10152C8.71866 8.67202 9.03741 9.22764 9.3833 9.7663C9.72915 10.305 10.1017 10.826 10.4996 11.3275C10.8975 11.8289 11.3202 12.3102 11.7662 12.7694C11.8317 12.8312 11.8976 12.8926 11.9639 12.9535L16.0811 8.8362C15.8417 8.71044 15.5982 8.59279 15.3509 8.48348C14.9824 8.3277 14.6064 8.19044 14.2242 8.07222C13.842 7.95398 13.4541 7.85494 13.062 7.77545C12.6699 7.69596 12.2741 7.63613 11.876 7.59618C11.478 7.55624 11.0781 7.53624 10.6781 7.53624C10.3949 7.53625 10.1118 7.54629 9.82933 7.56633C9.43025 7.59462 9.03284 7.64284 8.63859 7.71083C8.52157 7.73529 8.40493 7.76149 8.2887 7.78943ZM16.0811 8.8362C16.1218 8.85557 16.1624 8.87528 16.2028 8.8951C16.1933 8.87329 16.1837 8.85151 16.1741 8.82976C16.1637 8.81153 16.1533 8.79332 16.1429 8.77514L16.0811 8.8362ZM16.0811 8.8362L11.9639 12.9535C12.3498 13.3453 12.7523 13.7204 13.1704 14.0776C13.66 14.49 14.1699 14.8777 14.6982 15.2391C15.2265 15.6006 15.7726 15.9354 16.3344 16.2423C16.6306 16.395 16.9298 16.54 17.2336 16.6771C17.2359 16.6703 17.2381 16.6636 17.2404 16.6568C17.3198 16.2648 17.3797 15.8689 17.4196 15.4709C17.4595 15.0728 17.4795 14.6729 17.4795 14.2728C17.4794 13.9896 17.4692 13.7065 17.449 13.424C17.4207 13.0249 17.3724 12.6275 17.3044 12.2332C17.2364 11.839 17.1487 11.4484 17.0417 11.0629C16.9347 10.6774 16.8085 10.2975 16.6635 9.92455C16.5261 9.57433 16.3725 9.23086 16.2028 8.8951C16.1624 8.87528 16.1218 8.85557 16.0811 8.8362ZM16.1429 8.77514L20.4377 4.48006C20.2112 4.25131 19.9752 4.03168 19.731 3.82189C19.425 3.56416 19.1063 3.3219 18.7761 3.09601C18.446 2.8701 18.1047 2.66084 17.7536 2.46903C17.4025 2.27721 17.042 2.10307 16.6735 1.94726C16.3051 1.79146 15.929 1.65419 15.5468 1.53596C15.1647 1.41772 14.7768 1.31868 14.3847 1.23919C13.9926 1.1597 13.5968 1.09988 13.1987 1.05994C12.8006 1.02 12.4008 0.999998 12.0008 1C11.7176 0.999988 11.4344 1.01001 11.1519 1.03003C10.7528 1.05833 10.3554 1.10657 9.96118 1.17457C9.56696 1.24257 9.17639 1.33024 8.79093 1.43725C8.40544 1.54429 8.02554 1.67053 7.65266 1.81552C7.28594 1.95842 6.92647 2.11927 6.57555 2.2975C6.57779 2.30764 6.58003 2.31777 6.58228 2.3279C6.61507 2.3294 6.64785 2.33103 6.68062 2.33279C7.07869 2.37274 7.47451 2.43257 7.86659 2.51206C8.25867 2.59154 8.64653 2.69057 9.02871 2.80879C9.41092 2.92703 9.78698 3.06431 10.1555 3.22012C10.5239 3.37592 10.8844 3.55006 11.2355 3.74187C11.5866 3.93368 11.9279 4.14294 12.2581 4.36884C12.5882 4.59475 12.9069 4.83702 13.2129 5.09476C13.5189 5.3525 13.8119 5.62538 14.0907 5.91238C14.3694 6.19938 14.6336 6.50014 14.8822 6.81352C15.1309 7.12691 15.3638 7.45254 15.5799 7.78919C15.7839 8.10869 15.9726 8.43768 16.1454 8.77505L16.1429 8.77514ZM6.57922 2.32789C6.56067 2.32682 6.54212 2.32579 6.52357 2.32481C6.17903 2.50089 5.84321 2.69352 5.51728 2.90205C5.18064 3.11821 4.85501 3.35107 4.54163 3.59976C4.22824 3.84847 3.92747 4.1127 3.64047 4.39145C3.63108 4.40165 3.6217 4.41187 3.61234 4.4221C3.64303 4.39368 3.67445 4.36606 3.70658 4.33928C3.76929 4.28955 3.83444 4.24298 3.9018 4.19976C3.96912 4.15651 4.03856 4.11665 4.10986 4.08033C4.18118 4.04405 4.25428 4.01136 4.32887 3.98238C4.40343 3.95338 4.4794 3.92813 4.55649 3.90672C4.63359 3.88531 4.7117 3.86778 4.79054 3.85418C4.86937 3.84057 4.94884 3.83092 5.02863 3.82525C5.08515 3.82121 5.1418 3.81917 5.19847 3.81913C5.27845 3.81914 5.35838 3.82314 5.43796 3.83112C5.51758 3.83911 5.59676 3.85107 5.67519 3.86696C5.75362 3.88289 5.8312 3.90273 5.90765 3.92641C5.9841 3.95004 6.05931 3.97749 6.13302 4.00864C6.20672 4.0398 6.27881 4.07463 6.34903 4.11299C6.41926 4.15135 6.48754 4.1932 6.5536 4.23839C6.61962 4.28357 6.68335 4.33204 6.74453 4.38359C6.80573 4.43512 6.86431 4.48968 6.92006 4.54706C6.97579 4.60446 7.02861 4.66462 7.07833 4.7273C7.0959 4.75103 7.1129 4.77558 7.12958 4.79994C7.09882 4.70963 7.06873 4.6191 7.03931 4.52835C6.86807 3.91151 6.72778 3.28649 6.61898 2.65564C6.60479 2.5465 6.59153 2.43725 6.57922 2.32789ZM6.57922 2.32789C6.57697 2.31776 6.57473 2.30761 6.5725 2.29747C6.56658 2.30008 6.56067 2.30269 6.55476 2.3053C6.54333 2.31177 6.53192 2.31825 6.52051 2.32475C6.53906 2.32573 6.55762 2.32675 6.57617 2.32781L6.57922 2.32789ZM7.12958 4.79994C7.26734 5.2753 7.42319 5.74516 7.59725 6.20845C7.59676 6.15553 7.59525 6.10267 7.59126 6.0499C7.58566 5.97009 7.57606 5.8906 7.56252 5.81175C7.5487 5.73286 7.53057 5.65474 7.50894 5.57763C7.48756 5.50054 7.46233 5.42457 7.43335 5.35C7.40435 5.27542 7.37163 5.20233 7.33532 5.13102C7.29904 5.0597 7.25922 4.99025 7.216 4.92291C7.188 4.88101 7.15869 4.84 7.12811 4.79994L7.12958 4.79994ZM7.12958 4.79994C7.1129 4.77558 7.0959 4.75103 7.07833 4.7273C7.02861 4.66462 6.97579 4.60446 6.92006 4.54706C6.86431 4.48968 6.80573 4.43512 6.74453 4.38359C6.68335 4.33204 6.61962 4.28357 6.5536 4.23839C6.48754 4.1932 6.41926 4.15135 6.34903 4.11299C6.27881 4.07463 6.20672 4.0398 6.13302 4.00864C6.05931 3.97749 5.9841 3.95004 5.90765 3.92641C5.8312 3.90273 5.75362 3.88289 5.67519 3.86696C5.59676 3.85107 5.51758 3.83911 5.43796 3.83112C5.35838 3.82314 5.27845 3.81914 5.19847 3.81913C5.1418 3.81917 5.08515 3.82121 5.02863 3.82525C4.94884 3.83092 4.86937 3.84057 4.79054 3.85418C4.7117 3.86778 4.63359 3.88531 4.55649 3.90672C4.4794 3.92813 4.40343 3.95338 4.32887 3.98238C4.25428 4.01136 4.18118 4.04405 4.10986 4.08033C4.03856 4.11665 3.96912 4.15651 3.9018 4.19976C3.83444 4.24298 3.76929 4.28955 3.70658 4.33928C3.67445 4.36606 3.64303 4.39368 3.61234 4.4221C3.58092 4.45544 3.54975 4.4887 3.51871 4.5224L6.90195 7.907C6.94768 7.86171 6.99175 7.81429 7.03369 7.76546C7.08524 7.70428 7.13369 7.64055 7.17887 7.57452C7.22409 7.50847 7.26598 7.44019 7.30437 7.36995C7.34271 7.29973 7.37751 7.22764 7.40864 7.15395C7.43978 7.08026 7.46721 7.00505 7.49084 6.92861C7.51448 6.85215 7.53428 6.77456 7.55016 6.69612C7.56593 6.6177 7.57777 6.53853 7.58563 6.45893C7.5935 6.37931 7.59738 6.29935 7.59725 6.21934C7.59726 6.21571 7.59726 6.21208 7.59725 6.20845C7.42319 5.74516 7.26734 5.2753 7.12958 4.79994ZM6.90195 7.907L3.51871 4.5224C3.44265 4.6018 3.36603 4.68308 3.29218 4.76454C3.26595 4.79722 3.24058 4.83059 3.2161 4.86459C3.17092 4.93064 3.12908 4.99891 3.09073 5.06914C3.05235 5.13936 3.01751 5.21146 2.98633 5.28516C2.95517 5.35885 2.92772 5.43405 2.90407 5.51048C2.88043 5.58693 2.86064 5.66452 2.84475 5.74296C2.82898 5.82138 2.81837 5.90037 2.8105 5.97998C2.80264 6.05962 2.79876 6.13961 2.79888 6.21964C2.79912 6.27628 2.80136 6.33289 2.80561 6.38937C2.81101 6.46917 2.8204 6.54865 2.83374 6.62752C2.84756 6.70638 2.86532 6.7845 2.88695 6.86159C2.90835 6.9387 2.9336 7.01469 2.9626 7.08928C2.99159 7.16386 3.02429 7.23694 3.06058 7.30824C3.09687 7.37956 3.13672 7.44903 3.17996 7.51637C3.22319 7.58368 3.26977 7.6488 3.31952 7.71147C3.36926 7.77416 3.4221 7.83432 3.47785 7.89173C3.5336 7.94914 3.59218 8.00372 3.65338 8.05527C3.71456 8.10682 3.77829 8.15528 3.84431 8.20047C3.91037 8.24565 3.97865 8.28749 4.04888 8.32585C4.1191 8.36419 4.1912 8.399 4.26489 8.43014C4.33858 8.46131 4.41377 8.48877 4.4902 8.51243C4.56663 8.53608 4.64419 8.55591 4.7226 8.57181C4.80103 8.58773 4.8802 8.59971 4.95983 8.60772C5.03945 8.61566 5.11942 8.61962 5.19944 8.61958C5.25607 8.61954 5.31268 8.6175 5.36916 8.61346C5.44897 8.6078 5.52845 8.59814 5.60731 8.58453C5.68615 8.57091 5.76426 8.55336 5.84136 8.53194C5.91849 8.51053 5.9945 8.48529 6.06911 8.45629C6.14368 8.4273 6.21675 8.3946 6.28805 8.35831C6.35935 8.32201 6.42879 8.28217 6.49611 8.23894C6.56345 8.19571 6.62858 8.14914 6.69126 8.09941C6.75392 8.04966 6.81405 7.99681 6.87143 7.94105C6.88235 7.92972 6.89316 7.91829 6.90385 7.90674L6.90195 7.907ZM3.29218 4.76454C3.36603 4.68308 3.44265 4.6018 3.51871 4.5224C3.54975 4.4887 3.58092 4.45544 3.61234 4.4221C3.58312 4.44659 3.55413 4.47217 3.52611 4.49803C3.46873 4.55377 3.41417 4.61236 3.36263 4.67356C3.33886 4.70328 3.31451 4.73372 3.29218 4.76454Z" fill="#B43A3A"/>
</svg>
