<svg width="1161" height="301" viewBox="0 0 1161 301" fill="none" xmlns="http://www.w3.org/2000/svg">
<path d="M463.117 102.818V181.008C463.117 192.611 460.52 202.655 455.324 211.141C450.129 219.453 443.029 225.861 434.023 230.363C425.191 234.866 415.147 237.117 403.891 237.117C392.461 237.117 382.243 234.866 373.238 230.363C364.406 225.861 357.393 219.453 352.197 211.141C347.175 202.655 344.664 192.611 344.664 181.008V102.818H377.914L378.174 175.033C378.174 185.251 380.512 192.87 385.188 197.893C389.863 202.915 396.098 205.426 403.891 205.426C411.51 205.426 417.658 202.915 422.334 197.893C427.183 192.87 429.607 185.251 429.607 175.033V102.818H463.117ZM520.473 102.818V119.443C524.457 114.421 529.219 109.832 534.761 105.676C540.475 101.52 547.749 99.4414 556.581 99.4414C565.759 99.4414 574.072 101.606 581.518 105.936C588.965 110.092 594.766 116.413 598.923 124.898C604.118 117.798 610.179 111.824 617.106 106.975C624.033 101.952 632.086 99.4414 641.264 99.4414C650.096 99.4414 658.149 101.52 665.423 105.676C672.696 109.659 678.498 115.633 682.827 123.6C687.33 131.566 689.581 141.523 689.581 153.473V234H656.591L656.331 157.889C656.331 149.057 653.993 142.476 649.317 138.146C644.815 133.817 638.84 131.652 631.393 131.652C625.679 131.652 620.743 133.471 616.587 137.107C612.43 140.571 608.534 144.727 604.897 149.576V234H571.907L571.647 157.889C571.647 149.057 569.309 142.476 564.634 138.146C560.131 133.817 554.243 131.652 546.97 131.652C541.428 131.652 536.492 133.384 532.163 136.848C527.833 140.138 523.937 144.035 520.473 148.537V234H487.483V102.818H520.473ZM741.482 34.5C747.716 34.5 753.085 36.7513 757.587 41.2539C762.09 45.5833 764.341 50.7786 764.341 56.8398C764.341 62.7279 762.09 67.9232 757.587 72.4258C753.085 76.9284 747.716 79.1797 741.482 79.1797C735.248 79.1797 729.879 76.9284 725.377 72.4258C721.047 67.9232 718.882 62.7279 718.882 56.8398C718.882 50.7786 721.047 45.5833 725.377 41.2539C729.879 36.7513 735.248 34.5 741.482 34.5ZM760.705 102.818V234H727.714V130.873H706.673V102.818H760.705ZM897.809 102.818V110.871L830.01 205.686H900.407V234H782.473V225.688L847.414 130.873H786.37V102.818H897.809ZM972.31 99.4414C979.41 99.4414 986.597 101.087 993.87 104.377C1001.14 107.667 1007.2 112.083 1012.05 117.625V102.818H1045.04V230.623C1045.04 245.516 1041.75 258.072 1035.17 268.289C1028.59 278.68 1019.85 286.559 1008.94 291.928C998.027 297.469 986.077 300.24 973.089 300.24C961.486 300.24 951.961 298.508 944.515 295.045C937.068 291.581 930.141 287.598 923.734 283.096V251.924C927.717 254.348 931.873 256.946 936.202 259.717C940.705 262.488 945.727 264.826 951.269 266.73C956.984 268.635 963.564 269.588 971.011 269.588C978.804 269.588 985.818 268.116 992.052 265.172C998.286 262.228 1003.14 258.072 1006.6 252.703C1010.24 247.508 1012.05 241.533 1012.05 234.779V211.92C1008.24 219.02 1002.7 225.168 995.429 230.363C988.155 235.385 979.67 237.896 969.972 237.896C959.408 237.896 949.624 235.212 940.618 229.844C931.786 224.475 924.686 216.682 919.318 206.465C913.949 196.247 911.265 183.865 911.265 169.318C911.265 154.771 913.949 142.303 919.318 131.912C924.859 121.521 932.219 113.555 941.398 108.014C950.749 102.299 961.053 99.4414 972.31 99.4414ZM979.064 131.912C972.137 131.912 966.162 133.73 961.14 137.367C956.291 140.831 952.481 145.42 949.71 151.135C946.939 156.676 945.554 162.738 945.554 169.318C945.554 179.189 948.498 187.589 954.386 194.516C960.447 201.27 968.413 204.646 978.284 204.646C984.172 204.646 989.627 203.174 994.65 200.23C999.845 197.113 1004 192.784 1007.12 187.242C1010.41 181.527 1012.05 174.687 1012.05 166.721V148.018C1007.38 142.995 1002.27 139.099 996.728 136.328C991.359 133.384 985.471 131.912 979.064 131.912ZM1099.8 34.5C1106.04 34.5 1111.41 36.7513 1115.91 41.2539C1120.41 45.5833 1122.66 50.7786 1122.66 56.8398C1122.66 62.7279 1120.41 67.9232 1115.91 72.4258C1111.41 76.9284 1106.04 79.1797 1099.8 79.1797C1093.57 79.1797 1088.2 76.9284 1083.7 72.4258C1079.37 67.9232 1077.2 62.7279 1077.2 56.8398C1077.2 50.7786 1079.37 45.5833 1083.7 41.2539C1088.2 36.7513 1093.57 34.5 1099.8 34.5ZM1119.03 102.818V234H1086.04V130.873H1064.99V102.818H1119.03Z" fill="#B43A3A"/>
<path d="M251.82 226.415C251.395 226.351 250.97 226.286 250.546 226.22C250.644 226.973 250.735 227.727 250.82 228.482C251.159 227.795 251.492 227.105 251.82 226.413V226.415ZM251.82 226.415C253.127 223.914 254.354 221.373 255.5 218.795C257.227 214.71 258.749 210.542 260.059 206.306C261.37 202.07 262.468 197.771 263.349 193.425C264.23 189.079 264.893 184.692 265.335 180.28C265.778 175.868 266 171.436 266 167.002C266 163.863 265.889 160.725 265.667 157.594C265.353 153.171 264.818 148.766 264.064 144.396C263.311 140.027 262.339 135.697 261.152 131.424C259.966 127.152 258.568 122.941 256.961 118.809C255.354 114.676 253.541 110.626 251.53 106.674C249.518 102.722 247.311 98.8732 244.915 95.1419C242.519 91.4105 239.938 87.8013 237.182 84.3277C234.425 80.8542 231.497 77.5208 228.407 74.3398C227.781 73.744 227.148 73.1544 226.51 72.5709L178.905 120.175C179.021 120.376 179.137 120.578 179.252 120.78C179.361 121.021 179.469 121.263 179.576 121.505C180.423 121.903 181.266 122.31 182.105 122.726C185.997 124.853 189.779 127.172 193.439 129.676C197.099 132.179 200.631 134.864 204.023 137.721C207.414 140.577 210.661 143.602 213.75 146.783C216.839 149.964 219.768 153.298 222.524 156.771C225.281 160.245 227.862 163.854 230.258 167.585C232.654 171.316 234.861 175.165 236.873 179.117C238.884 183.069 240.696 187.118 242.303 191.251C243.91 195.384 245.309 199.595 246.495 203.868C247.682 208.14 248.654 212.469 249.407 216.839C249.898 219.952 250.278 223.082 250.546 226.222C250.971 226.288 251.395 226.353 251.82 226.416L251.82 226.415ZM250.546 226.22C247.28 225.804 244.025 225.312 240.782 224.745C234.753 223.481 228.782 221.956 222.885 220.175C222.976 220.23 223.065 220.285 223.155 220.341C223.887 220.841 224.594 221.378 225.272 221.949C225.95 222.521 226.599 223.126 227.217 223.762C227.835 224.398 228.42 225.065 228.972 225.759C229.523 226.454 230.039 227.176 230.518 227.923C230.998 228.669 231.439 229.438 231.842 230.229C232.244 231.019 232.607 231.829 232.928 232.655C233.25 233.482 233.529 234.324 233.766 235.179C234.004 236.033 234.198 236.899 234.349 237.773C234.499 238.647 234.606 239.528 234.669 240.413C234.713 241.039 234.735 241.666 234.734 242.294C234.734 243.181 234.69 244.067 234.602 244.95C234.513 245.833 234.381 246.71 234.204 247.579C234.028 248.449 233.808 249.308 233.546 250.155C233.284 251.003 232.98 251.836 232.635 252.653C232.289 253.47 231.903 254.269 231.478 255.047C231.053 255.826 230.589 256.582 230.088 257.314C229.646 257.952 229.176 258.57 228.68 259.167C230.765 257.072 232.78 254.909 234.722 252.681C237.578 249.289 240.264 245.757 242.768 242.097C245.271 238.438 247.59 234.655 249.716 230.763C250.091 230.006 250.458 229.246 250.819 228.482C250.733 227.727 250.642 226.973 250.543 226.22L250.546 226.22ZM250.546 226.22C250.277 223.08 249.897 219.951 249.406 216.837C248.653 212.468 247.681 208.138 246.495 203.866C245.309 199.593 243.909 195.383 242.302 191.25C240.696 187.117 238.883 183.067 236.872 179.115C234.861 175.163 232.653 171.315 230.258 167.583C227.862 163.852 225.28 160.243 222.524 156.769C219.767 153.296 216.839 149.962 213.749 146.781C210.66 143.601 207.413 140.576 204.022 137.72C200.63 134.863 197.098 132.178 193.439 129.674C189.779 127.17 185.996 124.851 182.105 122.724C181.266 122.308 180.423 121.901 179.576 121.503C181.456 125.225 183.16 129.032 184.682 132.914C186.289 137.047 187.688 141.258 188.874 145.53C190.061 149.803 191.032 154.132 191.786 158.502C192.54 162.871 193.074 167.276 193.388 171.699C193.61 174.83 193.721 177.968 193.721 181.107C193.721 185.542 193.499 189.973 193.056 194.386C192.613 198.798 191.951 203.185 191.07 207.53C191.051 207.605 191.032 207.68 191.013 207.755C194.036 209.305 197.096 210.784 200.189 212.188C203.449 213.47 206.74 214.671 210.059 215.79C210.303 215.799 210.548 215.81 210.792 215.825C211.674 215.914 212.551 216.046 213.42 216.223C214.29 216.399 215.15 216.618 215.997 216.88C216.844 217.142 217.678 217.447 218.494 217.792C219.311 218.137 220.11 218.523 220.888 218.948C221.572 219.327 222.238 219.736 222.886 220.173C228.782 221.954 234.754 223.479 240.782 224.742C244.025 225.31 247.28 225.802 250.546 226.218L250.546 226.22ZM222.885 220.175C221.979 219.95 221.075 219.719 220.171 219.482C216.77 218.337 213.398 217.106 210.059 215.791C209.419 215.735 208.777 215.703 208.135 215.694C207.508 215.694 206.88 215.715 206.254 215.76C205.369 215.822 204.488 215.929 203.614 216.08C202.74 216.231 201.874 216.425 201.02 216.662C200.165 216.9 199.323 217.179 198.497 217.5C197.67 217.822 196.86 218.184 196.07 218.587C195.279 218.989 194.509 219.431 193.763 219.91C193.017 220.389 192.295 220.905 191.601 221.456C190.906 222.008 190.239 222.593 189.603 223.211C189.53 223.291 189.457 223.37 189.385 223.45L226.957 261.022C227.538 260.409 228.114 259.792 228.683 259.168C229.18 258.572 229.65 257.954 230.092 257.316C230.593 256.584 231.057 255.827 231.482 255.049C231.907 254.271 232.293 253.471 232.639 252.655C232.984 251.838 233.288 251.004 233.55 250.157C233.812 249.309 234.032 248.45 234.208 247.58C234.384 246.711 234.517 245.834 234.605 244.952C234.694 244.069 234.738 243.183 234.738 242.296C234.738 241.668 234.717 241.04 234.673 240.414C234.61 239.53 234.503 238.649 234.352 237.775C234.201 236.901 234.006 236.035 233.769 235.181C233.532 234.326 233.252 233.484 232.931 232.657C232.61 231.831 232.247 231.021 231.845 230.23C231.443 229.44 231.001 228.67 230.522 227.924C230.043 227.178 229.526 226.456 228.975 225.761C228.424 225.066 227.838 224.4 227.22 223.763C226.602 223.127 225.953 222.522 225.274 221.951C224.596 221.38 223.89 220.843 223.158 220.342C223.068 220.287 222.978 220.231 222.888 220.177L222.885 220.175ZM222.885 220.175C222.238 219.738 221.572 219.329 220.888 218.95C220.11 218.525 219.311 218.139 218.494 217.794C217.678 217.449 216.844 217.144 215.996 216.882C215.149 216.62 214.289 216.401 213.42 216.225C212.551 216.049 211.674 215.916 210.791 215.827C210.547 215.812 210.303 215.801 210.059 215.793C213.398 217.108 216.77 218.339 220.171 219.484C221.074 219.721 221.979 219.952 222.885 220.177V220.175ZM210.059 215.791C206.74 214.671 203.449 213.47 200.189 212.188C197.095 210.784 194.035 209.306 191.012 207.755C190.143 212.024 189.065 216.248 187.781 220.411C187.654 220.762 187.526 221.113 187.397 221.463L189.383 223.448C189.455 223.368 189.527 223.289 189.6 223.21C190.236 222.592 190.903 222.006 191.598 221.455C192.293 220.903 193.014 220.387 193.761 219.907C194.507 219.428 195.277 218.987 196.067 218.584C196.858 218.182 197.667 217.82 198.494 217.498C199.321 217.177 200.163 216.897 201.017 216.66C201.872 216.423 202.738 216.229 203.612 216.078C204.486 215.927 205.366 215.82 206.251 215.757C206.877 215.713 207.505 215.691 208.133 215.692C208.775 215.701 209.416 215.733 210.056 215.788L210.059 215.791ZM189.383 223.448C188.827 223.995 188.296 224.565 187.79 225.158C187.219 225.836 186.681 226.543 186.181 227.275C185.68 228.007 185.216 228.763 184.791 229.542C184.366 230.32 183.98 231.119 183.635 231.936C183.289 232.753 182.985 233.586 182.723 234.434C182.461 235.281 182.241 236.141 182.065 237.01C181.889 237.879 181.757 238.756 181.668 239.639C181.579 240.521 181.535 241.407 181.535 242.294C181.535 242.922 181.557 243.549 181.601 244.175C181.663 245.06 181.77 245.941 181.921 246.815C182.072 247.689 182.266 248.555 182.503 249.41C182.74 250.264 183.02 251.106 183.342 251.933C183.663 252.76 184.026 253.57 184.428 254.36C184.83 255.15 185.272 255.92 185.751 256.666C186.23 257.413 186.747 258.135 187.298 258.829C187.849 259.524 188.435 260.191 189.053 260.827C189.67 261.463 190.32 262.068 190.998 262.639C191.676 263.21 192.383 263.747 193.115 264.248C193.847 264.749 194.604 265.213 195.382 265.638C196.16 266.063 196.959 266.449 197.776 266.795C198.593 267.14 199.426 267.444 200.274 267.706C201.121 267.968 201.981 268.188 202.85 268.364C203.719 268.54 204.597 268.673 205.479 268.762C206.361 268.85 207.247 268.894 208.134 268.894C208.762 268.895 209.39 268.873 210.016 268.829C210.9 268.766 211.782 268.659 212.656 268.509C213.529 268.358 214.395 268.164 215.249 267.927C216.104 267.689 216.947 267.409 217.773 267.088C218.6 266.767 219.41 266.404 220.2 266.002C220.991 265.6 221.76 265.158 222.507 264.679C223.253 264.2 223.975 263.684 224.67 263.132C225.274 262.647 225.857 262.135 226.416 261.599C226.596 261.407 226.775 261.214 226.953 261.021L189.383 223.448ZM189.383 223.448L187.397 221.463C186.181 225.337 184.787 229.153 183.222 232.9C181.495 236.984 179.565 240.979 177.439 244.871C175.313 248.762 172.994 252.545 170.491 256.205C167.987 259.864 165.302 263.397 162.445 266.788C159.588 270.18 156.564 273.426 153.383 276.516C150.202 279.605 146.868 282.533 143.395 285.289C139.921 288.046 136.312 290.627 132.581 293.023C128.969 295.334 125.246 297.469 121.427 299.421C125.274 299.782 129.135 299.975 132.999 300C136.138 300 139.276 299.889 142.407 299.666C146.83 299.353 151.235 298.818 155.605 298.065C159.974 297.311 164.304 296.339 168.576 295.153C172.849 293.967 177.06 292.568 181.193 290.961C185.326 289.354 189.376 287.542 193.328 285.53C197.28 283.519 201.128 281.311 204.859 278.915C208.591 276.519 212.2 273.938 215.674 271.182C219.147 268.426 222.481 265.497 225.662 262.408C225.914 262.139 226.166 261.869 226.417 261.598C225.858 262.134 225.275 262.646 224.671 263.131C223.976 263.682 223.254 264.198 222.508 264.678C221.762 265.157 220.992 265.599 220.202 266.001C219.411 266.403 218.601 266.766 217.774 267.087C216.948 267.409 216.105 267.689 215.251 267.926C214.396 268.163 213.531 268.357 212.657 268.508C211.783 268.659 210.902 268.765 210.017 268.828C209.391 268.873 208.764 268.895 208.136 268.895C207.249 268.895 206.363 268.851 205.48 268.762C204.598 268.674 203.72 268.541 202.851 268.365C201.982 268.188 201.123 267.969 200.275 267.706C199.428 267.445 198.595 267.14 197.778 266.795C196.961 266.45 196.161 266.064 195.383 265.638C194.604 265.213 193.848 264.749 193.116 264.249C192.384 263.748 191.677 263.211 190.999 262.639C190.321 262.068 189.672 261.464 189.054 260.827C188.436 260.191 187.851 259.524 187.299 258.829C186.748 258.135 186.232 257.413 185.752 256.667C185.273 255.921 184.832 255.151 184.429 254.361C184.027 253.57 183.665 252.76 183.343 251.933C183.022 251.107 182.742 250.265 182.505 249.411C182.268 248.556 182.073 247.69 181.923 246.815C181.772 245.942 181.665 245.061 181.602 244.176C181.558 243.55 181.536 242.922 181.537 242.294C181.537 241.408 181.581 240.521 181.67 239.639C181.758 238.757 181.891 237.879 182.067 237.01C182.243 236.141 182.463 235.281 182.725 234.434C182.987 233.587 183.291 232.753 183.637 231.936C183.982 231.119 184.368 230.32 184.793 229.542C185.218 228.764 185.682 228.007 186.182 227.275C186.683 226.543 187.22 225.836 187.792 225.158C188.297 224.565 188.828 223.995 189.384 223.449L189.383 223.448ZM226.417 261.598C226.501 261.524 226.585 261.45 226.668 261.375C227.304 260.757 227.909 260.108 228.481 259.43C228.548 259.342 228.615 259.254 228.682 259.166C228.112 259.789 227.537 260.407 226.955 261.02C226.776 261.213 226.597 261.405 226.417 261.597V261.598ZM0.519933 177.961C0.880047 177.197 1.24719 176.437 1.62178 175.68C3.74762 171.789 6.06669 168.006 8.57042 164.346C11.0743 160.687 13.7597 157.154 16.6164 153.763C19.473 150.371 22.4974 147.124 25.6783 144.035C28.8593 140.946 32.1927 138.017 35.6662 135.261C39.1397 132.504 42.7492 129.924 46.4805 127.528C50.2116 125.132 54.0601 122.924 58.0117 120.913C61.9637 118.902 66.0142 117.089 70.1472 115.483C72.9346 114.452 75.7555 113.514 78.6057 112.672L76.4867 110.553C76.3698 110.681 76.2517 110.808 76.1322 110.933C75.4961 111.551 74.8292 112.137 74.1346 112.689C73.44 113.24 72.7185 113.756 71.9723 114.235C71.2258 114.714 70.4558 115.156 69.6652 115.558C68.8749 115.96 68.065 116.323 67.2385 116.644C66.4119 116.965 65.5697 117.245 64.7151 117.482C63.8608 117.72 62.995 117.914 62.1213 118.065C61.2472 118.216 60.3658 118.323 59.481 118.385C58.8548 118.429 58.2275 118.451 57.5997 118.451C56.713 118.451 55.8266 118.406 54.9443 118.318C54.0618 118.229 53.1841 118.097 52.3148 117.921C51.4456 117.744 50.5856 117.525 49.7383 117.263C48.8911 117.001 48.0575 116.697 47.2408 116.351C46.4238 116.006 45.625 115.62 44.8467 115.195C44.0684 114.77 43.3116 114.306 42.5796 113.805C41.8477 113.304 41.1412 112.767 40.4629 112.196C39.7846 111.624 39.1353 111.02 38.5174 110.383C37.8996 109.747 37.3144 109.08 36.7632 108.386C36.2117 107.691 35.6953 106.969 35.2159 106.223C34.7368 105.477 34.295 104.707 33.8928 103.916C33.4906 103.126 33.1284 102.316 32.807 101.49C32.4857 100.663 32.206 99.821 31.9687 98.9665C31.7315 98.112 31.5367 97.246 31.3859 96.3721C31.2353 95.4981 31.1288 94.6172 31.0662 93.7325C31.0222 93.1063 30.9999 92.4787 31.0002 91.8509C31.0002 90.964 31.0446 90.0776 31.1331 89.1951C31.2218 88.3127 31.3549 87.4353 31.5313 86.5662C31.7074 85.6969 31.927 84.837 32.189 83.9896C32.451 83.1425 32.7552 82.3091 33.1005 81.4923C33.446 80.6755 33.8322 79.8764 34.2576 79.0981C34.6827 78.3198 35.1464 77.5631 35.6471 76.8311C35.9184 76.4542 36.1995 76.0844 36.4903 75.7221C34.699 77.5373 32.9602 79.4035 31.2762 81.3186C28.4196 84.71 25.7344 88.2422 23.2306 91.9018C20.727 95.5617 18.4082 99.3444 16.2825 103.236C14.1562 107.127 12.2261 111.123 10.499 115.207C8.77238 119.292 7.25069 123.459 5.94043 127.696C4.63006 131.932 3.53275 136.231 2.65184 140.577C1.7707 144.923 1.10726 149.31 0.664408 153.722C0.221804 158.134 -5.72177e-05 162.565 1.10682e-08 166.999C0.000189488 170.138 0.111754 173.277 0.333988 176.408C0.393361 176.926 0.455807 177.443 0.521271 177.961H0.519933ZM78.6057 112.672C79.984 112.189 81.37 111.728 82.7634 111.29C85.7697 110.504 88.8029 109.823 91.8569 109.25C89.2588 104.031 86.8761 98.7074 84.7151 93.293C84.5397 92.7717 84.3662 92.2498 84.1948 91.7272C84.1949 91.7674 84.1949 91.8077 84.1948 91.848C84.1948 92.7348 84.1504 93.621 84.0619 94.5034C83.9734 95.3857 83.8407 96.2631 83.6646 97.1322C83.4883 98.0016 83.269 98.8616 83.0069 99.709C82.7448 100.556 82.4403 101.39 82.095 102.207C81.7498 103.023 81.3642 103.822 80.9392 104.601C80.5139 105.379 80.0497 106.136 79.5488 106.868C79.048 107.6 78.5109 108.306 77.9395 108.984C77.4748 109.525 76.9885 110.047 76.4818 110.549L78.6057 112.672ZM91.8569 109.25C93.1454 108.94 94.4382 108.65 95.7354 108.379C100.105 107.625 104.51 107.09 108.933 106.777C112.064 106.555 115.202 106.444 118.341 106.443C122.775 106.443 127.207 106.665 131.619 107.108C136.031 107.551 140.418 108.214 144.764 109.095C149.11 109.976 153.409 111.074 157.645 112.384C161.881 113.694 166.049 115.216 170.133 116.942C172.874 118.154 175.573 119.458 178.226 120.851L178.905 120.173C176.989 116.434 174.897 112.788 172.636 109.247C170.24 105.516 167.66 101.907 164.903 98.4335C162.147 94.96 159.219 91.6265 156.129 88.4455C153.04 85.2646 149.793 82.2402 146.402 79.3836C143.01 76.5269 139.478 73.8417 135.818 71.3379C132.159 68.8341 128.376 66.5149 124.484 64.389C120.593 62.2631 116.597 60.3331 112.513 58.6063C108.429 56.8795 104.261 55.358 100.025 54.0476C95.7885 52.7372 91.4894 51.6395 87.1436 50.7585C82.7976 49.8775 78.4104 49.2144 73.9981 48.7716C73.6347 48.7512 73.271 48.7322 72.9074 48.7147C73.044 49.9268 73.1914 51.1377 73.3489 52.3473C74.5549 59.3392 76.1097 66.2665 78.0078 73.1031C78.3338 74.1089 78.6674 75.1123 79.0084 76.1132C79.3475 76.5573 79.6722 77.012 79.9827 77.4765C80.4617 78.2227 80.9031 78.9923 81.3053 79.7826C81.7077 80.573 82.0705 81.383 82.392 82.2097C82.7132 83.0362 82.9931 83.8783 83.2303 84.7327C83.4673 85.5874 83.6612 86.4534 83.8117 87.3275C83.9627 88.2014 84.0699 89.0824 84.1328 89.967C84.1723 90.5521 84.1927 91.1382 84.1934 91.7246C84.3649 92.2471 84.5383 92.7689 84.7138 93.2901C86.8746 98.7046 89.2571 104.028 91.8551 109.247L91.8569 109.25ZM91.8569 109.25C92.3624 110.407 92.8782 111.56 93.4042 112.709C96.6227 119.032 100.155 125.19 103.989 131.16C107.822 137.13 111.952 142.905 116.362 148.463C120.773 154.021 125.458 159.354 130.401 164.444C131.127 165.129 131.857 165.81 132.592 166.485L178.226 120.852C175.574 119.458 172.874 118.154 170.133 116.943C166.049 115.216 161.881 113.694 157.645 112.384C153.409 111.074 149.11 109.976 144.764 109.095C140.418 108.214 136.031 107.551 131.618 107.108C127.206 106.665 122.775 106.444 118.34 106.443C115.202 106.444 112.064 106.555 108.933 106.777C104.509 107.091 100.105 107.625 95.735 108.379C94.4378 108.65 93.1449 108.94 91.8564 109.25L91.8569 109.25ZM178.226 120.851C178.677 121.066 179.127 121.283 179.576 121.503C179.468 121.262 179.361 121.02 179.252 120.779C179.137 120.577 179.021 120.375 178.905 120.173L178.226 120.851ZM178.226 120.851L132.592 166.485C136.869 170.827 141.331 174.984 145.966 178.944C151.392 183.514 157.044 187.811 162.9 191.817C168.756 195.823 174.808 199.534 181.035 202.935C184.318 204.628 187.645 206.235 191.012 207.755C191.031 207.68 191.051 207.605 191.069 207.53C191.95 203.185 192.613 198.798 193.056 194.386C193.499 189.974 193.72 185.542 193.72 181.108C193.72 177.969 193.609 174.831 193.387 171.699C193.073 167.276 192.539 162.871 191.785 158.502C191.032 154.132 190.06 149.803 188.874 145.53C187.688 141.258 186.288 137.047 184.681 132.914C183.159 129.032 181.455 125.225 179.575 121.503C179.126 121.283 178.677 121.066 178.226 120.851H178.226ZM178.905 120.173L226.509 72.5696C223.998 70.0343 221.387 67.6012 218.68 65.2759C215.289 62.4195 211.756 59.7344 208.097 57.2307C204.437 54.7269 200.654 52.4077 196.763 50.2817C192.871 48.1557 188.876 46.2257 184.792 44.4988C180.708 42.772 176.54 41.2506 172.303 39.9402C168.067 38.6297 163.768 37.532 159.422 36.651C155.076 35.7701 150.689 35.107 146.276 34.6643C141.864 34.2217 137.433 34 132.999 34C129.86 34 126.722 34.1111 123.591 34.3331C119.167 34.6468 114.763 35.1815 110.393 35.9351C106.023 36.6888 101.694 37.6605 97.4214 38.8466C93.1487 40.0329 88.9377 41.432 84.8048 43.0389C80.7403 44.6227 76.7566 46.4056 72.8673 48.3809C72.8798 48.493 72.892 48.6051 72.9047 48.7172C73.2682 48.7347 73.6317 48.7537 73.995 48.7742C78.4071 49.2169 82.7946 49.8801 87.1405 50.7612C91.4863 51.642 95.7853 52.7396 100.022 54.0499C104.258 55.3603 108.426 56.8819 112.511 58.6087C116.595 60.3355 120.59 62.2655 124.481 64.3914C128.373 66.5173 132.155 68.8366 135.815 71.3404C139.475 73.8442 143.007 76.5294 146.398 79.386C149.79 82.2426 153.037 85.267 156.127 88.4479C159.216 91.6289 162.144 94.9623 164.9 98.4357C167.657 101.909 170.238 105.518 172.634 109.249C174.894 112.79 176.986 116.437 178.901 120.176L178.905 120.173ZM72.9074 48.7172C72.7021 48.7058 72.4969 48.6949 72.2916 48.6845C68.4729 50.636 64.7509 52.771 61.1385 55.0821C57.4071 57.4779 53.7978 60.0589 50.3242 62.8152C46.8508 65.5717 43.5176 68.5002 40.3367 71.5897C40.2305 71.7029 40.1241 71.8163 40.0183 71.9299C40.3586 71.6149 40.7072 71.3087 41.0635 71.0119C41.7584 70.4607 42.4802 69.9446 43.2267 69.4656C43.9727 68.9862 44.7423 68.5444 45.5325 68.1419C46.3231 67.7398 47.1332 67.3774 47.96 67.0562C48.7864 66.7349 49.6287 66.455 50.483 66.2177C51.3377 65.9804 52.2036 65.786 53.0777 65.6352C53.9516 65.4846 54.8325 65.3778 55.7171 65.3152C56.3434 65.2711 56.971 65.2492 57.5988 65.2495C58.4855 65.2495 59.3715 65.2939 60.2538 65.3824C61.1362 65.4709 62.0137 65.6035 62.8829 65.7796C63.7521 65.956 64.6121 66.1758 65.4594 66.4381C66.3066 66.7001 67.1405 67.0042 67.9574 67.3494C68.7742 67.6948 69.5731 68.0809 70.3514 68.5061C71.1297 68.9313 71.8865 69.3952 72.6185 69.8959C73.3505 70.3967 74.0568 70.9338 74.7352 71.5052C75.4134 72.0764 76.0629 72.681 76.6807 73.317C77.2986 73.9532 77.8841 74.6199 78.4354 75.3146C78.6311 75.5775 78.8221 75.8442 79.0079 76.1142C78.667 75.1134 78.3333 74.11 78.0073 73.1042C76.1092 66.2678 74.554 59.3407 73.348 52.3489C73.1906 51.1392 73.044 49.9281 72.9074 48.7158V48.7172ZM72.9074 48.7172C72.8941 48.6051 72.8809 48.493 72.8677 48.3809C72.8022 48.4096 72.737 48.4384 72.6715 48.4672C72.5453 48.5388 72.4194 48.6106 72.2934 48.6826C72.4988 48.6918 72.7038 48.7015 72.9092 48.7118L72.9074 48.7172ZM79.0084 76.1162C80.5354 81.3848 82.2654 86.5923 84.1948 91.7272C84.194 91.1409 84.1736 90.5548 84.1341 89.9699C84.0714 89.0854 83.9647 88.2045 83.814 87.3306C83.6632 86.4564 83.4689 85.5903 83.2316 84.7355C82.9943 83.8811 82.7147 83.039 82.3933 82.2126C82.0719 81.3859 81.7094 80.5759 81.3071 79.7855C80.9048 78.9951 80.4631 78.2253 79.984 77.479C79.6736 77.0146 79.3488 76.5602 79.0097 76.1162H79.0084ZM79.0084 76.1162C78.8224 75.8461 78.6312 75.5793 78.4354 75.3163C77.8842 74.6216 77.2985 73.9549 76.6807 73.3187C76.063 72.6826 75.4142 72.0779 74.7361 71.5066C74.0576 70.9352 73.3506 70.3981 72.6185 69.8973C71.8866 69.3966 71.1301 68.9328 70.3519 68.5076C69.5736 68.0823 68.7747 67.6962 67.9578 67.3508C67.1409 67.0055 66.3071 66.7012 65.4598 66.4392C64.6125 66.1771 63.7526 65.9576 62.8833 65.7814C62.0142 65.6051 61.1371 65.4724 60.2547 65.3837C59.3724 65.2952 58.486 65.2509 57.5993 65.2509C56.9714 65.2505 56.3439 65.2724 55.7175 65.3164C54.8329 65.3791 53.9521 65.4859 53.0782 65.6366C52.2041 65.7873 51.3381 65.9816 50.4834 66.2188C49.6291 66.4561 48.7869 66.7361 47.9605 67.0575C47.1336 67.3787 46.3236 67.741 45.5329 68.1431C44.7427 68.5457 43.9727 68.9874 43.2267 69.4668C42.4802 69.9459 41.7584 70.462 41.0635 71.0132C40.7073 71.3099 40.359 71.6158 40.0188 71.9307C39.6707 72.3003 39.325 72.6718 38.9811 73.0454L76.4867 110.552C76.9935 110.05 77.4796 109.527 77.9444 108.986C78.5159 108.308 79.0533 107.602 79.5542 106.87C80.0548 106.138 80.5186 105.381 80.9436 104.603C81.3687 103.824 81.7546 103.025 82.0999 102.208C82.4452 101.391 82.7497 100.558 83.0118 99.7109C83.2738 98.8636 83.4929 98.0037 83.669 97.1345C83.8453 96.2652 83.9782 95.3878 84.0668 94.5053C84.1553 93.623 84.1997 92.7369 84.1997 91.8502C84.1998 91.8082 84.1998 91.7663 84.1997 91.7243C82.2702 86.5893 80.5399 81.3817 79.0128 76.1131L79.0084 76.1162ZM76.4867 110.553L38.9807 73.0472C38.1375 73.9273 37.3063 74.8188 36.4876 75.7217C36.1969 76.0839 35.9157 76.4537 35.6444 76.8307C35.1437 77.5628 34.68 78.3194 34.2549 79.0979C33.8296 79.8761 33.4433 80.675 33.0978 81.4918C32.7525 82.3087 32.4484 83.1423 32.1863 83.9896C31.9245 84.8369 31.705 85.6967 31.5291 86.5659C31.3526 87.435 31.2197 88.3125 31.1309 89.195C31.0429 90.0776 30.9992 90.9641 30.9998 91.8511C31 92.4788 31.0225 93.1062 31.0671 93.7323C31.1297 94.6169 31.2366 95.4978 31.3873 96.3717C31.5379 97.2457 31.732 98.1115 31.9692 98.966C32.2065 99.8207 32.4865 100.663 32.8079 101.49C33.1292 102.316 33.4915 103.126 33.8937 103.916C34.296 104.707 34.7376 105.477 35.2167 106.223C35.696 106.969 36.2123 107.691 36.7636 108.386C37.3148 109.08 37.9005 109.747 38.5183 110.383C39.1363 111.02 39.7858 111.625 40.4642 112.196C41.1424 112.767 41.8487 113.305 42.5805 113.805C43.3125 114.306 44.0692 114.77 44.8475 115.195C45.6259 115.62 46.4248 116.006 47.2416 116.351C48.0585 116.696 48.8924 117.001 49.7396 117.263C50.5868 117.525 51.4462 117.745 52.3152 117.921C53.1845 118.097 54.0622 118.23 54.9448 118.318C55.8273 118.406 56.7137 118.45 57.6006 118.449C58.2284 118.449 58.8558 118.427 59.4819 118.382C60.3666 118.319 61.2477 118.212 62.1217 118.062C62.9957 117.911 63.8615 117.716 64.716 117.479C65.5706 117.242 66.4128 116.962 67.2394 116.64C68.0659 116.319 68.8758 115.957 69.6661 115.554C70.4566 115.152 71.2264 114.711 71.9728 114.231C72.7191 113.752 73.4407 113.236 74.1355 112.685C74.83 112.134 75.4967 111.548 76.1327 110.93C76.2521 110.804 76.3703 110.677 76.4872 110.549L76.4867 110.553ZM36.4885 75.7221C37.3071 74.8192 38.138 73.9275 38.9811 73.0474C39.325 72.6738 39.6711 72.3023 40.0192 71.9327C39.6952 72.2042 39.3779 72.4833 39.0672 72.7699C38.431 73.3878 37.8259 74.037 37.2546 74.7153C36.9913 75.0448 36.7362 75.3805 36.4889 75.7221H36.4885Z" fill="#B43A3A"/>
</svg>
